<?xml version="1.0" encoding="utf-8"?>
<!-- Generator: Adobe Illustrator 26.0.2, SVG Export Plug-In . SVG Version: 6.00 Build 0)  -->
<svg version="1.1" id="Слой_1" xmlns="http://www.w3.org/2000/svg" xmlns:xlink="http://www.w3.org/1999/xlink" x="0px" y="0px"
	 viewBox="0 0 456.8 92.3" style="enable-background:new 0 0 456.8 92.3;" xml:space="preserve">
<defs>
   <style>
     .webasyst-web {
       fill: black;
     }
     @media (prefers-color-scheme: dark) {
         .webasyst-web {
           fill: #ffffff;
         }
     }
   </style>
</defs>
<style type="text/css">
	.st0{fill:#0088EE;}
	.st1{fill:#22CC22;}
	.st2{fill:#EE6622;}
	.st3{fill:#FFCC00;}
	.st4{fill:#55DDDD;}
</style>
<g>
	<g>
		<g>
			<path class="st0" d="M256.5,67.6c-0.3-0.9-0.4-2-0.6-3.1l-0.1-0.4c-0.3-2.7-0.5-5-0.5-7.3c0-4.1,0.1-7.4,0.4-10.4
				c0.3-3,0.4-6.2,0.4-10.1c0-2.9-0.3-5.4-0.9-7.9c-0.7-2.5-1.8-4.7-3.3-6.3c-1.5-1.7-3.5-3-6.3-4c-2.5-0.9-5.7-1.4-9.5-1.4
				c-5,0-9.5,0.4-13.7,1.3c-3.1,0.6-5.9,1.3-8.8,2.3c-0.9,0.3-1.7,1-2.1,1.9c-0.4,0.9-0.5,1.9-0.1,2.8l1.9,5.3
				c0.5,1.5,1.9,2.4,3.4,2.4c0.4,0,0.8-0.1,1.3-0.2c1.7-0.7,3.5-1.3,5.3-1.8c3.1-0.7,6.1-1.1,9.1-1.1c3.2,0,5.3,0.5,6.4,1.5
				c1,1,1.6,2.6,1.6,4.9c0,0.7-0.1,1.5-0.2,2.4c-0.6-0.1-1.4-0.2-2.4-0.4c-2.2-0.4-4-0.5-5.7-0.5l-0.8,0c-8.1,0-14.2,1.6-18.2,4.7
				c-4.2,3.2-6.3,8-6.3,14.2c0,2.3,0.4,4.4,1.3,6.5c0.8,1.9,2.1,3.6,3.8,5.1c1.7,1.5,3.6,2.6,5.7,3.3c2.3,0.8,4.7,1.2,7.2,1.2
				c4,0,7.5-0.9,10.7-2.6c2.5-1.4,5.3-3.7,6.8-5.1l1.3,4.3c0.4,1.6,1.8,2.6,3.5,2.6h6c1.1,0,2.1-0.5,2.8-1.4
				C256.5,69.8,256.8,68.7,256.5,67.6z M225.3,49.5c1.6-1.2,4-1.7,7.4-1.7c0.6,0,1.3,0,2.1,0.1l2.5,0.3c0.4,0.1,0.8,0.1,1.2,0.2
				c0.4,0.1,0.7,0.1,1,0.2c0.2,0,0.5,0.1,0.6,0.1v5c-0.8,1.3-2,2.7-3.7,4.1c-1.7,1.3-3.9,2-6.9,2c-2.1,0-3.6-0.5-4.8-1.6
				c-1.1-1-1.7-2.6-1.7-4.7C223.1,51.9,223.9,50.6,225.3,49.5z"/>
			<path class="st1" d="M306,47.5c-1.2-2.1-2.6-3.7-4.4-4.9c-1.6-1.2-3.4-2.1-5.8-2.9c-1.8-0.6-3.7-1.2-5.9-1.8
				c-2.6-0.7-4.6-1.4-6.3-2.2c-1.3-0.5-2-1.4-2-2.5c0-1.3,0.4-2.2,1.2-2.8c0.9-0.6,2.4-0.9,4.6-0.9c1.1,0,2.4,0.1,4,0.3
				c1.5,0.2,2.9,0.5,4.4,0.9c0.8,0.2,1.6,0.4,2.3,0.6c0.4,0.1,0.8,0.2,1.2,0.3c0.3,0.1,0.7,0.1,1.1,0.1c1.7,0,3.1-1.1,3.5-2.6
				l1.5-5.6c0.4-1.9-0.6-3.8-2.3-4.4c-1.8-0.6-4.1-1.2-6.3-1.6c-4-0.7-7.7-1-11.4-1c-6.4,0-11.2,1.4-14.6,4.3
				c-3.5,3-5.3,7.3-5.3,12.8c0,3.3,0.6,5.9,1.7,8c1.2,2.1,2.7,3.9,4.5,5.1c1.8,1.3,3.8,2.3,5.8,3l0.9,0.3c1.7,0.6,3.3,1.2,5,1.6
				c2.7,0.7,4.7,1.4,6.3,2.2c1.3,0.5,2,1.4,2,2.6c0,2.5-1,3-1.4,3.2c-1.2,0.7-2.9,1-4.9,1c-1.6,0-3-0.1-4.3-0.4
				c-1.5-0.3-3-0.6-4.3-1c-1.6-0.4-2.8-0.8-3.9-1.3c-0.3-0.1-0.6-0.2-0.9-0.4c-0.8-0.3-1.6-0.6-2.2-1l-1.1-0.6l-3.2,10.1
				c-0.5,1.8,0.3,3.7,2,4.4c1.8,0.8,3.9,1.4,6.4,2c3.9,0.7,7.5,1,11.1,1c7.3,0,13-1.6,16.8-4.8c3.8-3.2,5.8-7.8,5.8-13.7
				C307.7,52,307.2,49.5,306,47.5z"/>
			<path class="st2" d="M366.6,19.4c-0.7-1-1.8-1.5-3-1.5h-8.5c-1.6,0-3.1,1.1-3.5,2.6l-9.8,33.9l-11.5-34.3
				c-0.6-1.4-1.9-2.3-3.4-2.3H316c-1.2,0-2.4,0.6-3.1,1.7c-0.7,1-0.8,2.3-0.2,3.4l22.1,48.5c-0.3,1.3-0.8,2.5-1.4,3.5
				c-0.5,0.8-1.1,1.6-1.7,2.1c-0.7,0.5-1.3,0.8-2,0.9c-0.8,0.2-1.7,0.3-2.5,0.3c-0.9,0-1.8-0.1-2.8-0.5l-1-0.3l-2.6,9.5
				c-0.5,1.9,0.5,3.9,2.3,4.4c0.6,0.2,1.3,0.4,1.8,0.4c1.8,0.5,3.8,0.5,5.2,0.5c2.7,0,5.1-0.6,7.2-1.8c2-1.1,3.8-2.9,5.4-5.3
				c1.5-2.2,2.9-4.9,4.3-8.2c1-2.4,2-5,3.1-7.8l1-2.7l16-43.7C367.5,21.6,367.3,20.4,366.6,19.4z"/>
			<path class="st3" d="M410.4,47.5c-1.2-2.1-2.6-3.7-4.4-4.9c-1.6-1.2-3.4-2.1-5.8-2.9c-1.8-0.6-3.7-1.2-5.9-1.8
				c-2.6-0.7-4.6-1.4-6.3-2.2c-1.3-0.5-2-1.4-2-2.5c0-1.3,0.4-2.2,1.2-2.8c0.9-0.6,2.4-0.9,4.6-0.9c1.1,0,2.4,0.1,4,0.3
				c1.5,0.2,2.9,0.5,4.4,0.9c0.8,0.2,1.6,0.4,2.3,0.6c0.4,0.1,0.8,0.2,1.2,0.3c0.3,0.1,0.7,0.1,1.1,0.1c1.7,0,3.1-1.1,3.5-2.6
				l1.5-5.6c0.4-1.9-0.6-3.8-2.3-4.4c-1.8-0.6-4.1-1.2-6.3-1.6c-4-0.7-7.7-1-11.4-1c-6.4,0-11.2,1.4-14.6,4.3
				c-3.5,3-5.3,7.3-5.3,12.8c0,3.3,0.6,5.9,1.7,8c1.2,2.1,2.7,3.9,4.5,5.1c1.8,1.3,3.8,2.3,5.8,3l0.9,0.3c1.7,0.6,3.3,1.2,5,1.6
				c2.7,0.7,4.7,1.4,6.3,2.2c1.3,0.5,2,1.4,2,2.6c0,2.5-1,3-1.4,3.2c-1.2,0.6-2.9,1-4.9,1c-1.6,0-3-0.1-4.3-0.4
				c-1.5-0.3-3-0.6-4.3-1c-1.6-0.4-2.8-0.8-3.9-1.3l-0.9-0.4c-0.8-0.3-1.6-0.6-2.2-1l-1.1-0.6l-3.2,10.1c-0.5,1.8,0.3,3.7,2,4.4
				c1.8,0.8,3.9,1.4,6.4,2c3.9,0.7,7.5,1,11.1,1c7.3,0,13-1.6,16.8-4.8c3.8-3.2,5.8-7.8,5.8-13.7C412.1,52,411.6,49.5,410.4,47.5z"
				/>
			<path class="st4" d="M456.6,66.7l-2.5-9.3l-1.1,0.4c-1.1,0.5-2.2,0.8-3.3,1.1c-0.9,0.2-2.1,0.4-3.6,0.4c-2,0-3.4-0.7-4-2.1
				c-0.7-1.7-1.1-4.6-1.1-8.6V31.5h10.5c2,0,3.6-1.6,3.6-3.6v-6.4c0-2-1.6-3.6-3.6-3.6h-10.4V3.6c0-2-1.6-3.6-3.6-3.6
				c-0.3,0-0.6,0-0.9,0.1l-8.7,2.3c-1.6,0.4-2.8,1.8-2.8,3.5v12h-4.3c-2,0-3.6,1.6-3.7,3.7V28c0,2,1.6,3.6,3.6,3.6h4.3v25
				c0,5.9,1.3,10.3,3.9,13c2.7,2.8,6.6,4.1,12,4.1c2.8,0,5.5-0.3,8.3-1c2-0.6,3.7-1.1,5.1-1.5C456.1,70.5,457.2,68.5,456.6,66.7z"/>
		</g>
	</g>
	<g>
		<path d="M79.8,17.9h-7c-1.7,0-3.1,1.1-3.5,2.7c-1.9,7.2-7.1,28.2-8.1,32.5h0c-1.4-4.1-9.1-25.8-11.7-32.9
			c-0.6-1.4-1.9-2.3-3.4-2.3h-6.5c-1.5,0-2.9,1-3.5,2.5L25.6,53.3h0l-9-32.8c-0.4-1.5-1.9-2.6-3.5-2.6H3.6c-1.2,0-2.3,0.6-3,1.5
			c-0.7,1-0.9,2.2-0.5,3.3l16.5,47.4c0.5,1.5,1.9,2.5,3.4,2.5h6.8c1.5,0,2.9-1,3.4-2.5c2.1-5.9,9.9-28.5,11.4-33h0.4
			c1.5,4.1,9.4,26,12.1,33.2c0.5,1.4,1.9,2.3,3.3,2.3h6.7c1.5,0,2.9-1,3.4-2.5l15.7-47.4c0.3-1.1,0.1-2.3-0.6-3.3
			C82.1,18.4,81,17.9,79.8,17.9z" class="webasyst-web"/>
		<path d="M131.6,21.2c-2.3-1.8-4.8-3-7.7-3.7c-2.6-0.7-5.5-1-8.5-1c-8.8,0-15.8,2.5-20.6,7.3c-4.9,4.9-7.4,12.1-7.4,21.3
			c0,8.8,2.2,15.8,6.5,20.9c4.4,5.1,11.3,7.8,20.5,7.8c4.5,0,8.8-0.6,12.8-1.8c2.7-0.9,5.1-1.9,7.3-3.1c0.8-0.5,1.4-1.2,1.7-2.1
			c0.3-0.9,0.2-1.9-0.3-2.7l-2.3-4.3c-0.7-1.1-1.9-1.8-3.2-1.8c-0.5,0-1.1,0.1-1.5,0.4c-1,0.5-2.1,1-3.5,1.5c-2.3,0.8-5,1.2-8.1,1.2
			c-4.8,0-8.4-1-10.5-2.9c-1.9-1.7-3.1-4.5-3.5-8.3h34.5l0.2-0.8c0.5-2.1,0.7-3.8,0.8-5.3c0.2-1.8,0.2-3.3,0.2-4.7
			c0-4.3-0.7-7.7-2-10.6C135.5,25.1,133.7,22.9,131.6,21.2z M106.8,32.4c1.8-2,4.6-3,8.4-3c3.3,0,5.7,1,7,2.8c1.4,1.7,2,4,1.9,7
			h-20.4C104.1,36.5,105.1,34.2,106.8,32.4z" class="webasyst-web"/>
		<path d="M194.6,23.7c-3.7-4.6-9.1-6.9-16-6.9c-2.9,0-5.6,0.8-8,1.4l-0.4,0.1c-2.5,0.7-4.9,2.1-6.4,3.2v-18c0-1.8-1.6-3.4-3.4-3.4
			c-0.2,0-0.6,0-0.9,0.2l-8.7,2.3c-1.5,0.4-2.5,1.8-2.5,3.3v63.6l0.6,0.2c2.5,0.9,5.5,1.7,9,2.2c3.8,0.7,8.2,1,13.5,1
			c4.5,0,8.4-0.7,11.9-2c3.6-1.4,6.6-3.3,9.1-5.7c2.5-2.6,4.4-5.7,5.7-9.3c1.3-3.5,2-7.7,2-12.4C200.1,35.1,198.3,28.2,194.6,23.7z
			 M172.1,60c-1.8,0-3.5-0.1-4.7-0.2c-1.3-0.2-2.5-0.5-3.5-1V37.5c0.8-2.4,2.1-4.3,3.8-5.7c1.6-1.3,3.9-1.9,6.8-1.9
			c3.2,0,5.7,1.1,7.4,3.4c1.7,2.3,2.5,5.8,2.5,10.4C184.4,54.7,180.3,60,172.1,60z" class="webasyst-web"/>
	</g>
</g>
</svg>
